<svg width="56" height="64" fill="none" xmlns="http://www.w3.org/2000/svg"><path fill-rule="evenodd" clip-rule="evenodd" d="M43.932 15.78c-5.129-1.298-10.562-.053-13.519 3.095a3.336 3.336 0 01-.506.439c.657-6.624 6.237-11.814 13-11.814a1.87 1.87 0 001.867-1.875 1.87 1.87 0 00-1.867-1.875c-5.438 0-10.28 2.609-13.352 6.646C28.302 4.463 23.049 0 16.776 0H9.308a1.87 1.87 0 00-1.867 1.875c0 7.237 5.862 13.123 13.067 13.123h6.561a16.827 16.827 0 00-.916 4.39 3.343 3.343 0 01-.62-.516c-3.112-3.312-8.18-4.606-13.225-3.378-5.414 1.317-9.56 5.279-11.089 10.598C-.134 30.794-.373 36.546.563 41.874c1.01 5.753 3.25 11.183 6.306 15.29C10.151 61.571 14.067 64 17.892 64a9.069 9.069 0 004.374-1.122 11.99 11.99 0 015.709-1.469c1.966 0 3.942.508 5.709 1.468A9.03 9.03 0 0038.057 64c3.826 0 7.741-2.428 11.024-6.837 3.056-4.106 5.296-9.536 6.305-15.29.903-5.136.714-10.716-.518-15.311-1.465-5.465-5.45-9.395-10.936-10.782zm-23.424-4.53c-4.507 0-8.278-3.226-9.146-7.5h5.413c4.507 0 8.278 3.226 9.145 7.5h-5.412zm25.583 43.667c2.713-3.645 4.709-8.509 5.619-13.695.799-4.547.632-9.662-.447-13.685-1.51-5.634-5.813-7.506-8.243-8.12-3.798-.96-7.865-.126-9.892 2.032a7.099 7.099 0 01-5.152 2.229h-.004a7.105 7.105 0 01-5.152-2.231c-2.163-2.3-5.943-3.207-9.633-2.309-4.156 1.012-7.21 3.925-8.381 7.995-1.183 4.11-1.394 9.377-.567 14.09.91 5.186 2.906 10.05 5.62 13.694 2.523 3.39 5.451 5.333 8.033 5.333.906 0 1.78-.225 2.598-.67a15.72 15.72 0 017.485-1.92c2.584 0 5.173.663 7.488 1.92.815.445 1.687.67 2.594.67 2.582 0 5.51-1.944 8.034-5.333z" fill="#EF633E"/></svg>