<svg width="40" height="48" fill="none" xmlns="http://www.w3.org/2000/svg"><path d="M20 39c10.493 0 19-8.507 19-19S30.493 1 20 1 1 9.507 1 20s8.507 19 19 19z" fill="#F3933D"/><path fill-rule="evenodd" clip-rule="evenodd" d="M28.984 17.47a.322.322 0 00-.26-.217l-5.829-.84-2.606-5.235a.322.322 0 00-.578 0l-2.606 5.235-5.829.84a.322.322 0 00-.26.217.317.317 0 00.081.327l4.218 4.075-.996 5.754a.322.322 0 00.467.337L20 25.246l5.213 2.717a.324.324 0 00.34-.024.318.318 0 00.128-.313l-.996-5.754 4.218-4.075a.317.317 0 00.081-.327z" fill="#fff"/><path fill-rule="evenodd" clip-rule="evenodd" d="M0 19.63C0 8.79 8.956 0 20 0s20 8.79 20 19.63c0 10.89-8.56 18.371-19.632 28.049L20 48l-.368-.322C8.56 38.002 0 30.52 0 19.63zM4 20c0 8.836 7.162 16 16 16 8.838 0 16-7.164 16-16S28.838 4 20 4C11.162 4 4 11.164 4 20z" fill="#fff"/></svg>