<svg id="Capa_1" height="512" width="512" xmlns="http://www.w3.org/2000/svg"><path d="M499.024 503.618H12.975a5.502 5.502 0 01-5.502-5.502v-25.662a5.502 5.502 0 015.502-5.502h486.049a5.502 5.502 0 015.502 5.502v25.662a5.502 5.502 0 01-5.502 5.502z" fill="#d77f4a"/><path d="M504.521 472.438v25.699a5.478 5.478 0 01-5.481 5.481h-19.93a5.478 5.478 0 005.481-5.481v-25.699a5.486 5.486 0 00-5.481-5.491h19.93a5.487 5.487 0 015.481 5.491z" fill="#c86d36"/><path d="M384.837 8.383c-57.642-.108-104.602 46.76-104.601 104.402.001 40.402 22.951 75.443 56.526 92.799a4.343 4.343 0 012.294 4.499c-1.045 7.062-4.481 23.9-14.377 34.061-2.387 2.451-.173 6.537 3.191 5.913 17.136-3.177 43.127-11.093 52.752-30.374.76-1.522 2.285-2.498 3.987-2.498h.029c57.659 0 104.401-46.742 104.401-104.401-.001-57.592-46.635-104.293-104.202-104.401z" fill="#c1e9af"/><path d="M489.036 112.78c0 57.666-46.745 104.401-104.401 104.401h-.03c-1.704 0-3.229.977-3.986 2.501-9.626 19.282-35.614 27.194-52.754 30.373-3.358.628-5.57-3.458-3.189-5.909 5.69-5.839 9.237-13.881 11.43-21.006 12.606-4.783 24.952-12.376 30.951-24.394.757-1.525 2.282-2.501 3.986-2.501h.03c57.656 0 104.401-46.735 104.401-104.401 0-16.432-3.797-31.977-10.573-45.808 15.078 18.096 24.135 41.363 24.135 66.744z" fill="#ade194"/><path d="M207.255 384.101H100.026c-26.918 0-48.74-21.822-48.74-48.74V159.152c0-56.529 45.826-102.355 102.355-102.355s102.355 45.826 102.355 102.355v176.209c-.001 26.918-21.822 48.74-48.741 48.74z" fill="#596c76"/><path d="M255.99 159.156v176.207c0 26.915-21.813 48.738-48.738 48.738h-19.93c26.925 0 48.738-21.823 48.738-48.738V159.156c0-28.27-11.459-53.86-29.974-72.374-16.322-16.322-38.115-27.154-62.409-29.496a99.843 99.843 0 019.965-.488c28.27 0 53.85 11.459 72.374 29.984 18.515 18.514 29.974 44.104 29.974 72.374z" fill="#465a61"/><path d="M234.279 181.709v46.268c0 44.537-36.102 80.639-80.639 80.639s-80.639-36.102-80.639-80.639v-66.61l82.57-16.631z" fill="#ffcebf"/><path d="M234.281 181.709v46.27c0 44.534-36.107 80.641-80.641 80.641a80.91 80.91 0 01-9.061-.507c40.375-4.639 71.788-40.646 71.788-84.365v-42.355z" fill="#ffb09e"/><path d="M78.6 140.819L68.482 162.69l-3.763 19.02h8.284c51.868 3.045 80.637-28.685 80.638-28.686V140.82H78.6z" fill="#596c76"/><path d="M215.447 140.819H153.64v12.204c.001.001 28.77 31.731 80.638 28.686l-6.495-19.02z" fill="#596c76"/><path d="M73.002 230.659H62.806c-8.623 0-15.614-6.991-15.614-15.614v-.088c0-8.623 6.991-15.614 15.614-15.614h10.196zm161.277 0h10.196c8.623 0 15.614-6.991 15.614-15.614v-.088c0-8.623-6.991-15.614-15.614-15.614h-10.196z" fill="#ffcebf"/><path d="M284.319 466.952H22.962V298.571a5.507 5.507 0 015.507-5.507h250.344a5.507 5.507 0 015.507 5.507v168.381z" fill="#9facba"/><path d="M284.315 298.553v168.395h-19.93V298.553a5.486 5.486 0 00-5.481-5.491h19.93a5.487 5.487 0 015.481 5.491z" fill="#8d9ca8"/><circle cx="148.119" cy="380.008" fill="#f5f8f9" r="22.44"/><path d="M170.557 380.005c0 12.396-10.045 22.441-22.441 22.441-10.134 0-18.704-6.726-21.484-15.954 1.604.379 3.268.568 4.982.568 12.396 0 22.441-10.044 22.441-22.441 0-2.262-.329-4.434-.957-6.487 9.995 2.252 17.459 11.201 17.459 21.873z" fill="#e8edf2"/><path d="M331.308 211.152c-1.141 6.386-4.361 19.953-11.982 27.777a10.937 10.937 0 00-1.808 12.833 10.97 10.97 0 0011.714 5.643c35.589-6.599 50.767-21.126 57.221-32.761 60.854-.973 110.058-50.779 110.058-111.859 0-61.573-50.09-111.759-111.661-111.875h-.207c-12.266 0-24.334 1.984-35.869 5.897a7.474 7.474 0 004.801 14.155c9.986-3.388 20.438-5.105 31.068-5.105h.18c53.343.1 96.741 43.581 96.741 96.928 0 53.446-43.481 96.927-96.956 96.927-4.541 0-8.631 2.542-10.674 6.634-6.605 13.234-23.399 20.332-37.134 24.035 6.032-10.237 8.592-22.054 9.649-29.203.74-5-1.775-9.916-6.255-12.231-32.373-16.735-52.483-49.75-52.484-86.16 0-30.106 13.693-58.016 37.567-76.569a7.473 7.473 0 10-9.172-11.802c-27.544 21.406-43.342 53.616-43.342 88.371 0 41.257 22.374 78.738 58.545 98.365zm-206.437-12.158a7.474 7.474 0 00-7.474 7.474v12.602a7.474 7.474 0 1014.948 0v-12.602a7.474 7.474 0 00-7.474-7.474zm57.538 0a7.474 7.474 0 00-7.474 7.474v12.602a7.474 7.474 0 1014.948 0v-12.602a7.475 7.475 0 00-7.474-7.474zm-24.337 55.736a5.782 5.782 0 01-4.268 1.854 5.846 5.846 0 01-4.413-2.013 7.474 7.474 0 00-11.285 9.801 20.782 20.782 0 0015.697 7.159c5.734 0 11.27-2.403 15.187-6.593a7.473 7.473 0 00-.356-10.563c-3.013-2.819-7.742-2.658-10.562.355z"/><path d="M499.044 459.478H291.793V298.552c0-7.147-5.814-12.961-12.961-12.961h-15.364v-57.404a22.897 22.897 0 004.094-13.087v-.198c0-4.858-1.516-9.367-4.094-13.087v-42.663c0-60.559-49.268-109.828-109.828-109.828-60.559 0-109.828 49.269-109.828 109.828v42.664a22.897 22.897 0 00-4.094 13.087v.198c0 4.858 1.516 9.367 4.094 13.086v57.405H28.449c-7.147 0-12.961 5.814-12.961 12.961v48.963a7.474 7.474 0 1014.948 0v-46.977h246.411v158.94H30.435v-78.126a7.474 7.474 0 10-14.948 0v78.126h-2.533C5.812 459.478 0 465.291 0 472.435v25.701c0 7.144 5.812 12.955 12.956 12.955h486.088c7.144 0 12.956-5.812 12.956-12.955v-25.701c0-7.144-5.812-12.957-12.956-12.957zM58.76 159.152c0-52.318 42.563-94.881 94.881-94.881s94.881 42.563 94.881 94.881v33.071a23.032 23.032 0 00-3.991-.353h-2.778v-10.161c0-4.244-3.69-7.709-7.913-7.461-47.388 2.782-73.56-25.045-74.678-26.261-1.607-1.749-4.269-2.733-6.633-2.441-2.332.288-4.163 2.261-5.758 3.804a62.073 62.073 0 01-2.823 2.556c-7.343 6.28-15.829 11.258-24.748 14.934-14.449 5.957-30.182 8.319-45.76 7.407a7.54 7.54 0 00-5.795 2.257c-1.686 1.73-2.118 4.325-2.118 6.664v8.701h-2.776c-1.362 0-2.694.126-3.991.353v-33.07zM54.666 215.1v-.198c0-4.459 3.627-8.086 8.085-8.086h2.776v16.368h-2.776c-4.459.001-8.085-3.626-8.085-8.084zm4.094 70.491v-47.812c1.297.228 2.63.353 3.991.353h3.382c2.081 18.025 9.606 34.414 20.909 47.459zm139.914 0h-90.036c-17.101-13.381-28.131-34.175-28.162-57.515v-28.733l-.001-.029v-9.932c37.697-.127 62.699-17.227 73.165-26.129 10.465 8.903 35.465 26.002 73.166 26.129v38.594c0 23.372-11.021 44.212-28.132 57.615zm49.848 0h-28.281c11.302-13.045 18.826-29.434 20.906-47.459h3.383c1.362 0 2.694-.126 3.991-.353v47.812zm4.093-70.491c0 4.458-3.627 8.085-8.085 8.085h-2.778v-16.368h2.778c4.458 0 8.085 3.627 8.085 8.086zm244.438 281.044H14.947v-21.718h482.106z"/><path d="M178.033 380.008c0-16.494-13.419-29.914-29.914-29.914-16.494 0-29.914 13.419-29.914 29.914s13.419 29.914 29.914 29.914 29.914-13.419 29.914-29.914zm-44.88 0c0-8.253 6.714-14.967 14.967-14.967s14.967 6.714 14.967 14.967-6.714 14.967-14.967 14.967-14.967-6.714-14.967-14.967zM334.849 83.379h99.576a7.474 7.474 0 100-14.948h-99.576a7.474 7.474 0 00-7.474 7.474 7.473 7.473 0 007.474 7.474zm107.049 24.046a7.474 7.474 0 00-7.474-7.474h-99.576a7.474 7.474 0 100 14.948h99.576a7.473 7.473 0 007.474-7.474zm-107.049 24.047a7.474 7.474 0 100 14.948h59.743a7.474 7.474 0 100-14.948z"/></svg>