<svg height="512" width="512" xmlns="http://www.w3.org/2000/svg"><g id="Filled_outline" data-name="Filled outline"><path d="M400 144h-6a88.015 88.015 0 00-156.988-78.066A75.993 75.993 0 00114.678 144H112a56 56 0 00-56 56 56 56 0 0056 56h288a56 56 0 0056-56 56 56 0 00-56-56z" fill="#85ccd5"/><rect fill="#348ed8" height="200" rx="16" width="176" x="168" y="96"/><rect fill="#459ce5" height="72" rx="16" width="176" x="168" y="96"/><rect fill="#348ed8" height="64" rx="8" width="96" x="24" y="392"/><path d="M96 488H48l8-32h32z" fill="#d5d5d3"/><path d="M92 472H52l4-16h32z" fill="#cececc"/><rect fill="#348ed8" height="64" rx="8" width="96" x="208" y="392"/><path d="M280 488h-48l8-32h32z" fill="#d5d5d3"/><path d="M276 472h-40l4-16h32z" fill="#cececc"/><rect fill="#348ed8" height="64" rx="8" width="96" x="392" y="392"/><path d="M464 488h-48l8-32h32z" fill="#d5d5d3"/><path d="M460 472h-40l4-16h32z" fill="#cececc"/><path d="M155.795 64.1l-7.59-14.085a84.016 84.016 0 0186.921 4.467 96.035 96.035 0 01169.8 81.709A64 64 0 01400 264h-32v-16h32a48 48 0 100-96h-6a8 8 0 01-7.453-10.908 80.019 80.019 0 00-142.726-70.967 8 8 0 01-11.975 1.916 68.011 68.011 0 00-76.051-7.941zM112 264h32v-16h-32a48 48 0 010-96h2.68a8 8 0 007.717-10.108 67.988 67.988 0 0116.013-64.417l-11.666-10.95a84 84 0 00-21.826 69.864A64 64 0 00112 264zm64-112a8.009 8.009 0 008 8h144a8.009 8.009 0 008-8v-40a8.009 8.009 0 00-8-8H184a8.009 8.009 0 00-8 8v8h-16v-8a24.028 24.028 0 0124-24h144a24.028 24.028 0 0124 24v168a24.028 24.028 0 01-24 24H184a24.028 24.028 0 01-24-24V136h16zm160 128v-41.376a23.889 23.889 0 01-8 1.376H184a23.889 23.889 0 01-8-1.376V280a8.009 8.009 0 008 8h144a8.009 8.009 0 008-8zM176 174.624V216a8.009 8.009 0 008 8h144a8.009 8.009 0 008-8v-41.376a23.889 23.889 0 01-8 1.376H184a23.889 23.889 0 01-8-1.376zM208 192h-16v16h16zm112 0h-96v16h96zm-128 80h16v-16h-16zm32 0h96v-16h-96zm-96 128v48a16.019 16.019 0 01-16 16H90.246l4 16H104v16H40v-16h9.754l4-16H32a16.019 16.019 0 01-16-16v-48a16.019 16.019 0 0116-16h80a16.019 16.019 0 0116 16zm-54.246 64h-3.508l-4 16h11.508zm38.256-16l-.01-48H32v48zM480 424v-24h-80v48h80v-8h16v8a16.019 16.019 0 01-16 16h-21.754l4 16H472v16h-64v-16h9.754l4-16H400a16.019 16.019 0 01-16-16v-48a16.019 16.019 0 0116-16h80a16.019 16.019 0 0116 16v24zm-41.754 40l-4 16h11.508l-4-16zM312 400v48a16.019 16.019 0 01-16 16h-21.754l4 16H288v16h-64v-16h9.754l4-16H216a16.019 16.019 0 01-16-16v-48a16.019 16.019 0 0116-16h80a16.019 16.019 0 0116 16zm-54.246 64h-3.508l-4 16h11.508zm38.256-16l-.01-48h-80v48zM448 368v-24a8 8 0 00-8-8H264v-16h-16v16H72a8 8 0 00-8 8v24h16v-16h168v16h16v-16h168v16z"/></g></svg>