<svg id="Capa_1" height="512" viewBox="0 0 513 513" width="512" xmlns="http://www.w3.org/2000/svg"><path d="M315.44 326.194H197.49v103.54l7.03 20.865h101.832l9.158-20.865z" fill="#a79ba7"/><g id="XMLID_248_"><path d="M255.924 395.244h59.563l-.047-69.05H197.49v103.54l7.03 20.865h38.393l-7.03-20.865v-14.449c0-11.068 8.972-20.041 20.041-20.041z" fill="#918291"/><path d="M482.16 41.544H30.84c-12.89 0-23.34 10.45-23.34 23.33v269.655c-.1.177-.107.275 0 .275 2.03 0 47.858 22.72 47.858 22.72H487.42l18.08-22.72V64.874c0-12.88-10.45-23.33-23.34-23.33z" fill="#c8effe"/><path d="M77.543 334.594V42.564c0-.342.011-.681.026-1.02H30.84c-12.89 0-23.34 10.45-23.34 23.33v269.655c-.1.177-.107.275 0 .275 2.03 0 47.858 22.72 47.858 22.72h41.181c-10.814-2.037-18.996-11.526-18.996-22.93z" fill="#99e6fc"/><path d="M505.5 334.804v22.1c0 12.89-10.45 23.34-23.34 23.34H30.84c-12.89 0-23.34-10.45-23.34-23.34v-22.1h2.03z" fill="#b5adb6"/></g><path d="M100.883 357.934c-12.82 0-23.221-10.337-23.335-23.13H7.5v22.1c0 12.89 10.45 23.34 23.34 23.34h451.32c12.545 0 22.774-9.898 23.314-22.31z" fill="#a79ba7"/><path d="M361.22 461.504c4.4 3.06 2.24 9.96-3.11 9.96H154.89c-5.35 0-7.51-6.9-3.11-9.96l45.71-31.77h118.02z" fill="#b5adb6" id="XMLID_250_"/><path d="M190.275 461.504l45.71-31.77H197.49l-45.71 31.77c-4.4 3.06-2.24 9.96 3.11 9.96h38.495c-5.35 0-7.51-6.9-3.11-9.96z" fill="#a79ba7"/><g id="XMLID_249_"><path d="M166.45 140.004v-.01c-10.83-5.79-23.21-9.07-36.36-9.07-42.68 0-77.29 34.6-77.29 77.29 0 15.65 4.65 30.21 12.66 42.38l44.165 4.956 66.907-54.31z" fill="#fd8087"/><path d="M52.8 208.214c0 15.65 4.65 30.21 12.66 42.38l12.083 1.356V151.555C62.331 165.67 52.8 185.824 52.8 208.214z" fill="#fe646f"/><path d="M207.38 208.214c0 10.24-1.99 20.01-5.61 28.95l-71.68-28.95 36.36-68.21c24.36 12.99 40.93 38.66 40.93 68.21z" fill="#86e8d0"/><path d="M130.09 208.214l71.68 28.95c-11.45 28.34-39.23 48.34-71.68 48.34-27.03 0-50.83-13.88-64.63-34.91z" fill="#ffde55"/></g><path d="M454.832 139.99H272.107a6.724 6.724 0 01-6.724-6.724v-24.741a6.724 6.724 0 016.724-6.724h182.726a6.724 6.724 0 016.724 6.724v24.741a6.725 6.725 0 01-6.725 6.724zm-73.853 74.396H272.107a6.724 6.724 0 01-6.724-6.724v-24.741a6.724 6.724 0 016.724-6.724H380.98a6.724 6.724 0 016.724 6.724v24.741a6.725 6.725 0 01-6.725 6.724zm-46.503 74.395h-62.37a6.724 6.724 0 01-6.724-6.724v-24.741a6.724 6.724 0 016.724-6.724h62.37a6.724 6.724 0 016.724 6.724v24.741a6.724 6.724 0 01-6.724 6.724z" fill="#99e6fc"/><path d="M482.162 34.04H30.838C13.834 34.04 0 47.874 0 64.878v292.025c0 17.004 13.834 30.838 30.838 30.838h159.15v38.075l-42.493 29.531c-4.678 3.251-6.677 9.088-4.973 14.524s6.676 9.088 12.373 9.088h203.211c5.697 0 10.669-3.652 12.373-9.088s-.295-11.273-4.973-14.524l-42.493-29.531v-38.075h159.15c17.004 0 30.838-13.834 30.838-30.838V64.878C513 47.874 499.166 34.04 482.162 34.04zm-451.324 15h451.324c8.733 0 15.838 7.105 15.838 15.838v262.429H15V64.878c0-8.733 7.105-15.838 15.838-15.838zm451.324 323.701H289.477a7.5 7.5 0 000 15h18.535v41.996a7.5 7.5 0 003.22 6.159l40.382 28.064H161.387l38.452-26.723h82.091a7.5 7.5 0 000-15h-76.941v-34.496h52.526a7.5 7.5 0 000-15H30.838c-8.733 0-15.838-7.105-15.838-15.838v-14.597h483v14.597c0 8.733-7.105 15.838-15.838 15.838z"/><path d="M130.094 293c46.753 0 84.79-38.037 84.79-84.79s-38.037-84.79-84.79-84.79c-18.629 0-36.315 5.937-51.144 17.168a7.5 7.5 0 00-1.45 10.507 7.5 7.5 0 0010.507 1.45c12.201-9.241 26.754-14.125 42.087-14.125a69.38 69.38 0 0126.002 5.044l-31.719 59.526-56.396 36.98a69.335 69.335 0 01-7.677-31.759c0-11.82 3.02-23.508 8.732-33.803a7.501 7.501 0 00-13.116-7.278c-6.945 12.516-10.616 26.721-10.616 41.081 0 46.753 38.036 84.789 84.79 84.789zm69.789-84.789c0 6.596-.94 12.974-2.658 19.027l-56.591-22.859 28.695-53.851c18.429 12.576 30.554 33.738 30.554 57.683zm-68.959 8.424l60.68 24.51C179.821 263.062 156.672 278 130.094 278c-21.677 0-41.075-9.935-53.885-25.489zm141.182-69.145h182.726c7.843 0 14.224-6.381 14.224-14.224v-24.741c0-7.843-6.381-14.224-14.224-14.224H431.1a7.5 7.5 0 000 15h22.956v23.188H272.883v-23.188h126.255a7.5 7.5 0 000-15H272.106c-7.843 0-14.224 6.381-14.224 14.224v24.741c.001 7.844 6.382 14.224 14.224 14.224zm0 74.396h108.873c7.843 0 14.224-6.381 14.224-14.224v-24.741c0-7.843-6.381-14.224-14.224-14.224H272.106c-7.843 0-14.224 6.381-14.224 14.224v24.741c.001 7.843 6.382 14.224 14.224 14.224zm.777-38.188h107.32v23.188h-107.32zm-.777 112.583h62.37c7.843 0 14.224-6.381 14.224-14.224v-24.741c0-7.843-6.381-14.224-14.224-14.224h-62.37c-7.843 0-14.224 6.381-14.224 14.224v24.741c.001 7.843 6.382 14.224 14.224 14.224zm.777-38.188H333.7v23.188h-60.817z"/></svg>