<svg width="791" height="732" fill="none" xmlns="http://www.w3.org/2000/svg"><path d="M9.1 535c-1.4 0-2.8-.8-4-1.5-1.9-1-3.1-1.6-4.1-1L0 531c2-1.3 4.1-.1 5.9.9 1.9 1 3.1 1.6 4.1 1 1-.7 1-2 .7-4.1-.2-2.1-.4-4.5 1.5-5.8 2-1.3 4.1-.1 5.9.9 1.9 1 3.1 1.6 4.1 1 1-.7 1-2 .7-4.1-.2-2.1-.4-4.5 1.5-5.8 2-1.3 4.1-.1 5.9.9 1.9 1 3.1 1.6 4.1 1 1-.7 1-2 .7-4.1-.2-2.1-.4-4.5 1.5-5.8 2-1.3 4.1-.1 5.9.9 1.9 1 3.1 1.6 4.1 1 1-.7 1-2 .7-4.1-.2-2.1-.4-4.5 1.5-5.8 2-1.3 4.1-.1 5.9.9 1.9 1 3.1 1.6 4.1 1 1-.7 1-2 .8-4.1-.2-2.1-.4-4.5 1.5-5.8l1 1.5c-1 .7-1 2-.8 4.1.2 2.1.4 4.5-1.5 5.8-2 1.3-4.1.1-5.9-.9-1.9-1-3.1-1.6-4.1-1-1 .7-1 2-.7 4.1.2 2.1.4 4.5-1.5 5.8-2 1.3-4.1.1-5.9-.9-1.9-1-3.1-1.6-4.1-1-1 .7-1 2-.7 4.1.2 2.1.4 4.5-1.5 5.8-2 1.3-4.1.1-5.9-.9-1.9-1-3.1-1.6-4.1-1-1 .7-1 2-.7 4.1.2 2.1.4 4.5-1.5 5.8-2 1.3-4.1.1-5.9-.9-1.9-1-3.1-1.6-4.1-1-1 .7-1 2-.7 4.1.2 2.1.4 4.5-1.5 5.8-.7.4-1.3.6-1.9.6zm525-316c-1.4 0-2.8-.8-4-1.5-1.9-1-3.1-1.6-4.1-1l-1-1.5c2-1.3 4.1-.1 5.9.9 1.9 1 3.1 1.6 4.1 1 1-.7 1-2 .7-4.1-.2-2.1-.4-4.5 1.5-5.8 2-1.3 4.1-.1 5.9.9 1.9 1 3.1 1.6 4.1 1 1-.7 1-2 .7-4.1-.2-2.1-.4-4.5 1.5-5.8 2-1.3 4.1-.1 5.9.9 1.9 1 3.1 1.6 4.1 1 1-.7 1-2 .7-4.1-.2-2.1-.4-4.5 1.5-5.8 2-1.3 4.1-.1 5.9.9 1.9 1 3.1 1.6 4.1 1 1-.7 1-2 .7-4.1-.2-2.1-.4-4.5 1.5-5.8 2-1.3 4.1-.1 5.9.9 1.9 1 3.1 1.6 4.1 1 1-.7 1-2 .8-4.1-.2-2.1-.4-4.5 1.5-5.8l1 1.5c-1 .7-1 2-.8 4.1.2 2.1.4 4.5-1.5 5.8-2 1.3-4.1.1-5.9-.9-1.9-1-3.1-1.6-4.1-1-1 .7-1 2-.7 4.1.2 2.1.4 4.5-1.5 5.8-2 1.3-4.1.1-5.9-.9-1.9-1-3.1-1.6-4.1-1-1 .7-1 2-.7 4.1.2 2.1.4 4.5-1.5 5.8-2 1.3-4.1.1-5.9-.9-1.9-1-3.1-1.6-4.1-1-1 .7-1 2-.7 4.1.2 2.1.4 4.5-1.5 5.8-2 1.3-4.1.1-5.9-.9-1.9-1-3.1-1.6-4.1-1-1 .7-1 2-.7 4.1.2 2.1.4 4.5-1.5 5.8-.7.4-1.3.6-1.9.6zm32 269c-1.4 0-2.8-.8-4-1.5-1.9-1-3.1-1.6-4.1-1l-1-1.5c2-1.3 4.1-.1 5.9.9 1.9 1 3.1 1.6 4.1 1 1-.7 1-2 .7-4.1-.2-2.1-.4-4.5 1.5-5.8 2-1.3 4.1-.1 5.9.9 1.9 1 3.1 1.6 4.1 1 1-.7 1-2 .7-4.1-.2-2.1-.4-4.5 1.5-5.8 2-1.3 4.1-.1 5.9.9 1.9 1 3.1 1.6 4.1 1 1-.7 1-2 .7-4.1-.2-2.1-.4-4.5 1.5-5.8 2-1.3 4.1-.1 5.9.9 1.9 1 3.1 1.6 4.1 1 1-.7 1-2 .7-4.1-.2-2.1-.4-4.5 1.5-5.8 2-1.3 4.1-.1 5.9.9 1.9 1 3.1 1.6 4.1 1 1-.7 1-2 .8-4.1-.2-2.1-.4-4.5 1.5-5.8l1 1.5c-1 .7-1 2-.8 4.1.2 2.1.4 4.5-1.5 5.8-2 1.3-4.1.1-5.9-.9-1.9-1-3.1-1.6-4.1-1-1 .7-1 2-.7 4.1.2 2.1.4 4.5-1.5 5.8-2 1.3-4.1.1-5.9-.9-1.9-1-3.1-1.6-4.1-1-1 .7-1 2-.7 4.1.2 2.1.4 4.5-1.5 5.8-2 1.3-4.1.1-5.9-.9-1.9-1-3.1-1.6-4.1-1-1 .7-1 2-.7 4.1.2 2.1.4 4.5-1.5 5.8-2 1.3-4.1.1-5.9-.9-1.9-1-3.1-1.6-4.1-1-1 .7-1 2-.7 4.1.2 2.1.4 4.5-1.5 5.8-.7.4-1.3.6-1.9.6z" fill="#fff"/><path d="M728.923 172.482a.74.74 0 10.002-1.482.74.74 0 00-.002 1.482zm-3.706 3.706a.74.74 0 10.002-1.482.74.74 0 00-.002 1.482zm-3.891 3.707a.742.742 0 10-.001-1.483.742.742 0 00.001 1.483zm-3.706 3.706a.742.742 0 10-.001-1.483.742.742 0 00.001 1.483zm-3.892 3.891a.742.742 0 10.001-1.483.742.742 0 00-.001 1.483zm-3.706 3.706a.742.742 0 10.001-1.483.742.742 0 00-.001 1.483zm-3.891 3.706a.741.741 0 100-1.483.741.741 0 000 1.483zm-3.706 3.706a.741.741 0 100-1.483.741.741 0 000 1.483zm-3.891 3.706a.74.74 0 100-1.481.74.74 0 000 1.481zm-3.707 3.706a.74.74 0 10.002-1.482.74.74 0 00-.002 1.482zm-3.891 3.706a.74.74 0 10.002-1.48.74.74 0 00-.002 1.48zm-3.706 3.707a.742.742 0 10-.001-1.483.742.742 0 00.001 1.483zm-3.891 3.706a.742.742 0 10-.001-1.483.742.742 0 00.001 1.483zm-3.706 3.706a.742.742 0 10-.001-1.483.742.742 0 00.001 1.483zm-3.892 3.706a.74.74 0 100-1.481.74.74 0 000 1.481zm57.63-47.623a.742.742 0 10-.001-1.483.742.742 0 00.001 1.483zm-3.707 3.706a.742.742 0 10.001-1.483.742.742 0 00-.001 1.483zm-3.891 3.891a.741.741 0 100-1.483.741.741 0 000 1.483zm-3.891 3.706a.741.741 0 100-1.483.741.741 0 000 1.483zm-3.706 3.706a.741.741 0 100-1.483.741.741 0 000 1.483zm-3.892 3.706a.742.742 0 10.001-1.483.742.742 0 00-.001 1.483zm-3.706 3.707a.742.742 0 100-1.483.742.742 0 000 1.483zm-3.891 3.706a.742.742 0 10-.001-1.483.742.742 0 00.001 1.483zm-3.706 3.706a.742.742 0 10-.001-1.483.742.742 0 00.001 1.483zm-3.892 3.706a.742.742 0 10.001-1.483.742.742 0 00-.001 1.483zm-3.706 3.706a.74.74 0 100-1.481.74.74 0 000 1.481zm-3.891 3.706a.741.741 0 100-1.483.741.741 0 000 1.483zm-3.706 3.706a.741.741 0 100-1.483.741.741 0 000 1.483zm-3.892 3.706a.742.742 0 10.001-1.483.742.742 0 00-.001 1.483zM680.188 229a.742.742 0 10.001-1.483.742.742 0 00-.001 1.483zm57.63-47.438a.741.741 0 100-1.483.741.741 0 000 1.483zm-3.891 3.706a.741.741 0 100-1.483.741.741 0 000 1.483zm-3.706 3.706a.74.74 0 100-1.481.74.74 0 000 1.481zm-3.892 3.706a.74.74 0 100-1.481.74.74 0 000 1.481zm-3.706 3.706a.74.74 0 100-1.481.74.74 0 000 1.481zm-3.891 3.707a.742.742 0 10-.001-1.483.742.742 0 00.001 1.483zm-3.706 3.706a.742.742 0 10-.001-1.483.742.742 0 00.001 1.483zm-3.892 3.706a.742.742 0 10.001-1.483.742.742 0 00-.001 1.483zm-3.891 3.706a.741.741 0 100-1.483.741.741 0 000 1.483zm-3.706 3.706a.741.741 0 100-1.483.741.741 0 000 1.483zm-3.892 3.706a.742.742 0 10.001-1.483.742.742 0 00-.001 1.483zm-3.706 3.706a.742.742 0 10.001-1.483.742.742 0 00-.001 1.483zm-3.891 3.706a.741.741 0 100-1.483.741.741 0 000 1.483zm-3.706 3.706a.741.741 0 100-1.483.741.741 0 000 1.483zm-3.891 3.706a.741.741 0 100-1.483.741.741 0 000 1.483zm57.629-47.437a.742.742 0 10-.001-1.483.742.742 0 00.001 1.483zm-3.706 3.706a.742.742 0 10-.001-1.483.742.742 0 00.001 1.483zm-3.891 3.706a.742.742 0 10-.001-1.483.742.742 0 00.001 1.483zm-3.707 3.706a.742.742 0 100-1.483.742.742 0 000 1.483zm-3.891 3.706a.741.741 0 100-1.483.741.741 0 000 1.483zm-3.706 3.706a.741.741 0 100-1.483.741.741 0 000 1.483zm-3.891 3.706a.741.741 0 100-1.483.741.741 0 000 1.483zm-3.706 3.706a.741.741 0 100-1.483.741.741 0 000 1.483zm-3.892 3.706a.741.741 0 100-1.483.741.741 0 000 1.483zm-3.706 3.706a.741.741 0 100-1.483.741.741 0 000 1.483zm-3.891 3.706a.741.741 0 100-1.483.741.741 0 000 1.483zm-3.706 3.706a.74.74 0 100-1.481.74.74 0 000 1.481zm-3.892 3.706a.74.74 0 10.002-1.482.74.74 0 00-.002 1.482zm-3.706 3.707a.74.74 0 100-1.482.74.74 0 000 1.482zm-3.891 3.891a.741.741 0 100-1.483.741.741 0 000 1.483zm57.629-47.623a.741.741 0 100-1.483.741.741 0 000 1.483zm-3.891 3.706a.741.741 0 100-1.483.741.741 0 000 1.483zm-3.706 3.706a.741.741 0 100-1.483.741.741 0 000 1.483zm-3.892 3.706a.74.74 0 100-1.481.74.74 0 000 1.481zm-3.706 3.706a.74.74 0 100-1.481.74.74 0 000 1.481zm-3.891 3.706a.741.741 0 100-1.483.741.741 0 000 1.483zm-3.706 3.706a.741.741 0 100-1.483.741.741 0 000 1.483zm-3.892 3.706a.742.742 0 10.001-1.483.742.742 0 00-.001 1.483zm-3.706 3.707a.742.742 0 100-1.483.742.742 0 000 1.483zm-3.891 3.706a.742.742 0 10-.001-1.483.742.742 0 00.001 1.483zm-3.706 3.706a.742.742 0 10-.001-1.483.742.742 0 00.001 1.483zm-3.892 3.706a.742.742 0 100-1.483.742.742 0 000 1.483zm-3.706 3.891a.742.742 0 10.001-1.483.742.742 0 00-.001 1.483zm-3.891 3.706a.741.741 0 100-1.483.741.741 0 000 1.483zm-3.706 3.706a.741.741 0 100-1.483.741.741 0 000 1.483zm57.629-47.623a.742.742 0 10.001-1.483.742.742 0 00-.001 1.483zm-3.891 3.706a.741.741 0 100-1.483.741.741 0 000 1.483zm-3.706 3.706a.74.74 0 100-1.481.74.74 0 000 1.481zm-3.891 3.706a.74.74 0 100-1.481.74.74 0 000 1.481zm-3.892 3.706a.74.74 0 10.002-1.48.74.74 0 00-.002 1.48zm-3.706 3.707a.74.74 0 100-1.482.74.74 0 000 1.482zm-3.891 3.706a.742.742 0 10-.001-1.483.742.742 0 00.001 1.483zm-3.706 3.706a.742.742 0 10-.001-1.483.742.742 0 00.001 1.483zm-3.892 3.706a.74.74 0 100-1.481.74.74 0 000 1.481zm-3.706 3.706a.74.74 0 100-1.481.74.74 0 000 1.481zm-3.891 3.891a.741.741 0 100-1.483.741.741 0 000 1.483zm-3.706 3.706a.74.74 0 100-1.481.74.74 0 000 1.481zm-3.892 3.707a.742.742 0 100-1.483.742.742 0 000 1.483zm-3.706 3.706a.74.74 0 100-1.482.74.74 0 000 1.482zm-3.891 3.706a.742.742 0 10-.001-1.483.742.742 0 00.001 1.483zm57.629-47.623a.742.742 0 100-1.483.742.742 0 000 1.483zm-3.706 3.706a.742.742 0 100-1.483.742.742 0 000 1.483zm-3.891 3.706a.742.742 0 10-.001-1.483.742.742 0 00.001 1.483zm-3.706 3.706a.741.741 0 100-1.483.741.741 0 000 1.483zm-3.891 3.706a.741.741 0 100-1.483.741.741 0 000 1.483zm-3.706 3.706a.741.741 0 100-1.483.741.741 0 000 1.483zm-3.892 3.706a.74.74 0 100-1.481.74.74 0 000 1.481zm-3.706 3.706a.74.74 0 100-1.481.74.74 0 000 1.481zM724.847 229a.741.741 0 100-1.483.741.741 0 000 1.483zm-3.892 3.892a.742.742 0 100-1.483.742.742 0 000 1.483zm-3.706 3.706a.74.74 0 100-1.482.74.74 0 000 1.482zm-3.891 3.706a.742.742 0 10-.001-1.483.742.742 0 00.001 1.483zm-3.706 3.706a.741.741 0 100-1.483.741.741 0 000 1.483zm-3.892 3.706a.742.742 0 10.001-1.483.742.742 0 00-.001 1.483zm-3.706 3.706a.742.742 0 10.001-1.483.742.742 0 00-.001 1.483zm57.63-47.623a.741.741 0 100-1.483.741.741 0 000 1.483zm-3.892 3.706a.742.742 0 10.001-1.483.742.742 0 00-.001 1.483zm-3.706 3.706a.742.742 0 10.001-1.483.742.742 0 00-.001 1.483zm-3.891 3.706a.741.741 0 100-1.483.741.741 0 000 1.483zm-3.706 3.706a.741.741 0 100-1.483.741.741 0 000 1.483zm-3.892 3.706a.742.742 0 10.001-1.483.742.742 0 00-.001 1.483zm-3.706 3.706a.742.742 0 10.001-1.483.742.742 0 00-.001 1.483zM733 229.927a.741.741 0 100-1.483.741.741 0 000 1.483zm-3.706 3.706a.741.741 0 100-1.483.741.741 0 000 1.483zm-3.891 3.706a.741.741 0 100-1.483.741.741 0 000 1.483zm-3.707 3.706a.742.742 0 10.001-1.483.742.742 0 00-.001 1.483zm-3.891 3.706a.74.74 0 100-1.481.74.74 0 000 1.481zm-3.706 3.706a.741.741 0 100-1.483.741.741 0 000 1.483zm-3.891 3.706a.741.741 0 100-1.483.741.741 0 000 1.483zm-3.706 3.706a.741.741 0 100-1.483.741.741 0 000 1.483zm57.444-47.623a.741.741 0 100-1.483.741.741 0 000 1.483zm-3.707 3.706a.742.742 0 10.001-1.483.742.742 0 00-.001 1.483zm-3.891 3.706a.74.74 0 100-1.481.74.74 0 000 1.481zm-3.706 3.706a.741.741 0 100-1.483.741.741 0 000 1.483zm-3.891 3.706a.741.741 0 100-1.483.741.741 0 000 1.483zm-3.706 3.892a.742.742 0 10-.001-1.483.742.742 0 00.001 1.483zm-3.892 3.706a.742.742 0 10.001-1.483.742.742 0 00-.001 1.483zm-3.706 3.706a.742.742 0 10.001-1.483.742.742 0 00-.001 1.483zm-3.891 3.706a.741.741 0 100-1.483.741.741 0 000 1.483zm-3.706 3.706a.741.741 0 100-1.483.741.741 0 000 1.483zm-3.892 3.706a.742.742 0 10.001-1.483.742.742 0 00-.001 1.483zm-3.706 3.706a.742.742 0 10.001-1.483.742.742 0 00-.001 1.483zm-3.891 3.706a.741.741 0 100-1.483.741.741 0 000 1.483zm-3.706 3.706a.741.741 0 100-1.483.741.741 0 000 1.483zm-3.891 3.706a.74.74 0 100-1.481.74.74 0 000 1.481zm57.629-47.623a.74.74 0 100-1.481.74.74 0 000 1.481zm-3.706 3.706a.74.74 0 100-1.481.74.74 0 000 1.481zm-3.892 3.707a.742.742 0 100-1.483.742.742 0 000 1.483zm-3.706 3.891a.742.742 0 10.001-1.483.742.742 0 00-.001 1.483zm-3.891 3.706a.741.741 0 100-1.483.741.741 0 000 1.483zm-3.891 3.706a.741.741 0 100-1.483.741.741 0 000 1.483zm-3.706 3.706a.741.741 0 100-1.483.741.741 0 000 1.483zm-3.892 3.706a.74.74 0 100-1.481.74.74 0 000 1.481zm-3.706 3.706a.74.74 0 100-1.481.74.74 0 000 1.481zm-3.891 3.706a.74.74 0 100-1.481.74.74 0 000 1.481zm-3.706 3.706a.74.74 0 100-1.481.74.74 0 000 1.481zm-3.892 3.707a.74.74 0 100-1.482.74.74 0 000 1.482zm-3.706 3.706a.74.74 0 100-1.482.74.74 0 000 1.482zm-3.891 3.706a.742.742 0 10-.001-1.483.742.742 0 00.001 1.483zm-3.706 3.706a.742.742 0 10-.001-1.483.742.742 0 00.001 1.483zm57.629-47.623a.742.742 0 10-.001-1.483.742.742 0 00.001 1.483zm-3.891 3.891a.741.741 0 100-1.483.741.741 0 000 1.483zm-3.706 3.706a.741.741 0 100-1.483.741.741 0 000 1.483zm-3.892 3.706a.742.742 0 10.001-1.483.742.742 0 00-.001 1.483zm-3.706 3.706a.742.742 0 10.001-1.483.742.742 0 00-.001 1.483zm-3.891 3.706a.741.741 0 100-1.483.741.741 0 000 1.483zm-3.706 3.706a.741.741 0 100-1.483.741.741 0 000 1.483zm-3.892 3.706a.74.74 0 10.002-1.482.74.74 0 00-.002 1.482zm-3.706 3.706a.74.74 0 10.002-1.482.74.74 0 00-.002 1.482zm-3.891 3.706a.74.74 0 100-1.481.74.74 0 000 1.481zm-3.891 3.707a.741.741 0 100-1.483.741.741 0 000 1.483zm-3.706 3.706a.741.741 0 100-1.483.741.741 0 000 1.483zm-3.892 3.706a.742.742 0 10.001-1.483.742.742 0 00-.001 1.483zm-3.706 3.706a.74.74 0 100-1.481.74.74 0 000 1.481zm-3.891 3.706a.741.741 0 100-1.483.741.741 0 000 1.483zm57.629-47.438a.742.742 0 10.001-1.483.742.742 0 00-.001 1.483zm-3.706 3.706a.74.74 0 100-1.481.74.74 0 000 1.481zm-3.891 3.706a.741.741 0 100-1.483.741.741 0 000 1.483zm-3.706 3.706a.741.741 0 100-1.483.741.741 0 000 1.483zm-3.892 3.706a.74.74 0 10.002-1.48.74.74 0 00-.002 1.48zm-3.706 3.706a.74.74 0 10.002-1.482.74.74 0 00-.002 1.482zm-3.891 3.707a.742.742 0 10-.001-1.483.742.742 0 00.001 1.483zm-3.706 3.706a.742.742 0 10-.001-1.483.742.742 0 00.001 1.483zm-3.892 3.706a.742.742 0 10.001-1.483.742.742 0 00-.001 1.483zm-3.706 3.706a.742.742 0 10.001-1.483.742.742 0 00-.001 1.483zm-3.891 3.706a.741.741 0 100-1.483.741.741 0 000 1.483zm-3.706 3.706a.741.741 0 100-1.483.741.741 0 000 1.483zm-3.891 3.706a.741.741 0 100-1.483.741.741 0 000 1.483zm-3.707 3.706a.742.742 0 10.001-1.483.742.742 0 00-.001 1.483zm-3.891 3.706a.74.74 0 100-1.481.74.74 0 000 1.481zm57.629-47.438a.74.74 0 10.002-1.482.74.74 0 00-.002 1.482zm-3.891 3.706a.74.74 0 100-1.481.74.74 0 000 1.481zm-3.706 3.707a.742.742 0 10-.001-1.483.742.742 0 00.001 1.483zm-3.891 3.706a.742.742 0 10-.001-1.483.742.742 0 00.001 1.483zm-3.706 3.706a.742.742 0 10-.001-1.483.742.742 0 00.001 1.483zm-3.892 3.706a.742.742 0 10.001-1.483.742.742 0 00-.001 1.483zm-3.706 3.706a.74.74 0 100-1.481.74.74 0 000 1.481zm-3.891 3.706a.741.741 0 100-1.483.741.741 0 000 1.483zm-3.706 3.706a.741.741 0 100-1.483.741.741 0 000 1.483zm-3.892 3.706a.742.742 0 10.001-1.483.742.742 0 00-.001 1.483zm-3.706 3.706a.74.74 0 100-1.481.74.74 0 000 1.481zm-3.891 3.706a.741.741 0 100-1.483.741.741 0 000 1.483zm-3.706 3.706a.74.74 0 100-1.481.74.74 0 000 1.481zm-3.891 3.892a.742.742 0 10-.001-1.483.742.742 0 00.001 1.483zm-3.707 3.706a.742.742 0 10.001-1.483.742.742 0 00-.001 1.483zm57.63-47.623a.741.741 0 100-1.483.741.741 0 000 1.483zm-3.891 3.706a.741.741 0 100-1.483.741.741 0 000 1.483zm-3.707 3.706a.742.742 0 10.001-1.483.742.742 0 00-.001 1.483zm-3.891 3.706a.741.741 0 100-1.483.741.741 0 000 1.483zm-3.706 3.706a.741.741 0 100-1.483.741.741 0 000 1.483zm-3.891 3.706a.741.741 0 100-1.483.741.741 0 000 1.483zm-3.892 3.706a.742.742 0 10.001-1.483.742.742 0 00-.001 1.483zm-3.706 3.706a.74.74 0 100-1.481.74.74 0 000 1.481zm-3.891 3.706a.74.74 0 100-1.481.74.74 0 000 1.481zm-3.706 3.706a.74.74 0 100-1.481.74.74 0 000 1.481zm-3.892 3.706a.74.74 0 10.002-1.482.74.74 0 00-.002 1.482zm-3.706 3.892a.74.74 0 100-1.481.74.74 0 000 1.481zm-3.891 3.706a.741.741 0 100-1.483.741.741 0 000 1.483zm-3.706 3.706a.741.741 0 100-1.483.741.741 0 000 1.483zm-3.892 3.706a.742.742 0 10.001-1.483.742.742 0 00-.001 1.483zm57.63-47.623a.741.741 0 100-1.483.741.741 0 000 1.483zm-3.706 3.706a.741.741 0 100-1.483.741.741 0 000 1.483zm-3.892 3.706a.742.742 0 10.001-1.483.742.742 0 00-.001 1.483zm-3.706 3.706a.742.742 0 10.001-1.483.742.742 0 00-.001 1.483zm-3.891 3.706a.741.741 0 100-1.483.741.741 0 000 1.483zm-3.706 3.706a.741.741 0 100-1.483.741.741 0 000 1.483zm-3.891 3.706a.741.741 0 100-1.483.741.741 0 000 1.483zm-3.707 3.706a.74.74 0 10.002-1.482.74.74 0 00-.002 1.482zm-3.891 3.707a.742.742 0 10-.001-1.483.742.742 0 00.001 1.483zm-3.706 3.891a.741.741 0 100-1.483.741.741 0 000 1.483zm-3.891 3.706a.741.741 0 100-1.483.741.741 0 000 1.483zm-3.892 3.706a.742.742 0 10.001-1.483.742.742 0 00-.001 1.483zm-3.706 3.706a.742.742 0 10.001-1.483.742.742 0 00-.001 1.483zm-3.891 3.706a.741.741 0 100-1.483.741.741 0 000 1.483zm-3.706 3.706a.741.741 0 100-1.483.741.741 0 000 1.483z" fill="#8643DC"/><path d="M675 606.2l-.772-1.006L663 613.813l.772 1.006L675 606.2z" fill="#09E6DF"/><path d="M673.763 615.228L665.144 604l-1.006.772 8.62 11.228 1.005-.772z" fill="#09E6DF"/><path d="M760 296.2l-.772-1.006L748 303.813l.772 1.006L760 296.2z" fill="#8643DC"/><path d="M758.763 305.228L750.144 294l-1.006.772 8.62 11.228 1.005-.772z" fill="#8643DC"/><path d="M65.416 160.416a3.466 3.466 0 101.167-6.833 3.466 3.466 0 00-1.167 6.833z" fill="#FF59C1"/><path d="M167.416 731.416a3.466 3.466 0 101.167-6.834 3.466 3.466 0 00-1.167 6.834z" fill="#8643DC"/><path d="M590.416 249.416a3.466 3.466 0 101.167-6.834 3.466 3.466 0 00-1.167 6.834z" fill="#43DC77"/><path d="M459.416 7.416a3.466 3.466 0 101.168-6.833 3.466 3.466 0 00-1.168 6.833z" fill="#F57DC8"/></svg>