<svg width="42" height="42" fill="none" xmlns="http://www.w3.org/2000/svg"><path d="M10.327 19.28c.369-2.796 2.84-5.327 7.363-7.533l.814-.398-3.338-6.163-.754.382C4.85 10.415 0 17.266 0 25.93c0 2.99.949 5.571 2.82 7.674 1.899 2.132 4.202 3.213 6.847 3.213 2.377 0 4.392-.846 5.99-2.516 1.587-1.658 2.392-3.718 2.392-6.123 0-2.272-.813-4.297-2.416-6.019-1.415-1.518-3.197-2.484-5.306-2.878zm4.075 13.82c-1.275 1.333-2.824 1.98-4.735 1.98-2.158 0-3.973-.86-5.549-2.63-1.602-1.801-2.381-3.933-2.381-6.52 0-3.971 1.118-7.556 3.323-10.655 2.104-2.957 5.26-5.568 9.388-7.769l1.672 3.088c-5.03 2.636-7.579 5.805-7.579 9.427v.776l.771.087c2.076.235 3.728 1.04 5.05 2.459 1.312 1.409 1.95 2.99 1.95 4.835 0 1.97-.624 3.58-1.91 4.922zm19.494-13.817c.364-2.799 2.816-5.332 7.302-7.538l.802-.394-3.256-6.168-.76.384c-9.608 4.847-14.479 11.698-14.479 20.363 0 2.991.961 5.575 2.857 7.678 1.919 2.13 4.232 3.209 6.874 3.209 2.38 0 4.386-.848 5.963-2.52 1.563-1.658 2.356-3.717 2.356-6.12 0-2.272-.813-4.297-2.417-6.018-1.411-1.515-3.172-2.48-5.242-2.876zm4.04 13.822c-1.254 1.33-2.79 1.975-4.7 1.975-2.16 0-3.986-.862-5.584-2.635-1.622-1.8-2.41-3.93-2.41-6.515 0-3.97 1.123-7.555 3.338-10.654 2.114-2.956 5.283-5.567 9.428-7.767l1.627 3.083c-4.993 2.637-7.524 5.806-7.524 9.43v.773l.769.09c2.033.234 3.665 1.038 4.987 2.458 1.313 1.409 1.95 2.99 1.95 4.835.001 1.972-.615 3.584-1.882 4.927z" fill="#8643DC"/></svg>